<svg width="218" height="80" viewBox="0 0 218 80" fill="none" xmlns="http://www.w3.org/2000/svg">
<path fill-rule="evenodd" clip-rule="evenodd" d="M31.7119 0.182586C30.6056 0.803844 30.5617 2.82648 31.614 4.70028C32.6663 6.57408 34.4161 7.58946 35.5224 6.9682C36.6287 6.34695 36.6725 4.32431 35.6203 2.45051C34.568 0.576712 32.8182 -0.438672 31.7119 0.182586ZM14.9697 15.9778C12.0562 15.1971 10.068 13.1698 10.5289 11.4496C10.9898 9.7294 13.7253 8.96779 16.6389 9.74847C19.5524 10.5292 21.5407 12.5565 21.0798 14.2767C20.6188 15.9969 17.8833 16.7585 14.9697 15.9778ZM0.180911 37.5773C1.07363 39.9237 5.01897 40.6 8.99309 39.088C12.9672 37.5759 15.4652 34.4481 14.5724 32.1017C13.6797 29.7554 9.73438 29.0791 5.76027 30.5911C1.78616 32.1031 -0.711807 35.231 0.180911 37.5773ZM24.3054 61.1781C21.4048 65.6337 16.9209 67.8574 14.2903 66.1449C11.6597 64.4324 11.8785 59.4321 14.7791 54.9765C17.6796 50.5209 22.1635 48.2972 24.7941 50.0098C27.4248 51.7223 27.2059 56.7225 24.3054 61.1781ZM51.6984 70.4816C50.1687 76.0159 46.2797 79.7702 43.0122 78.867C39.7447 77.9639 38.336 72.7452 39.8657 67.2109C41.3954 61.6766 45.2843 57.9223 48.5518 58.8255C51.8194 59.7286 53.2281 64.9472 51.6984 70.4816ZM46.2263 4.62014C46.0009 2.89273 46.645 1.38453 47.6649 1.25147C48.6847 1.11841 49.6942 2.41088 49.9196 4.13828C50.145 5.86569 49.5009 7.37389 48.481 7.50695C47.4611 7.64001 46.4517 6.34754 46.2263 4.62014ZM64.1268 11.7515C65.6098 11.7515 66.812 10.5493 66.812 9.06631C66.812 7.5833 65.6098 6.38109 64.1268 6.38109C62.6438 6.38109 61.4416 7.5833 61.4416 9.06631C61.4416 10.5493 62.6438 11.7515 64.1268 11.7515Z" fill="url(#paint0_linear_124_4821)"/>
<path d="M36.549 21.7605V11.5078L46.5575 18.587L56.8102 15.4136L57.7866 24.9339L69.748 34.4542H55.5896L49.4869 51.542L41.1871 32.2572L21.9023 28.1073L36.549 21.7605Z" fill="url(#paint1_linear_124_4821)"/>
<path d="M105.64 29.8681H98.5426V58.6244H88.0803V29.8681H80.5547L81.1665 20.6294H106.252L105.64 29.8681Z" fill="url(#paint2_linear_124_4821)"/>
<path d="M110.911 24.6063C113.277 21.5472 117.132 20.0176 122.475 20.0176C127.818 20.0176 131.632 21.5268 133.916 24.5452C136.241 27.5635 137.404 32.4786 137.404 39.2904C137.404 46.0614 136.221 51.0784 133.855 54.3415C131.489 57.6046 127.655 59.2362 122.353 59.2362C117.05 59.2362 113.236 57.625 110.911 54.4027C108.586 51.1804 107.424 46.1837 107.424 39.4128C107.424 32.601 108.586 27.6655 110.911 24.6063ZM126.88 39.2904C126.88 35.5378 126.574 33.0089 125.962 31.7036C125.391 30.3576 124.188 29.6846 122.353 29.6846C120.558 29.6846 119.395 30.3576 118.865 31.7036C118.335 33.0089 118.07 35.5174 118.07 39.2292V40.6976C118.07 44.6541 118.355 47.2646 118.926 48.5291C119.538 49.7528 120.741 50.3646 122.536 50.3646C124.372 50.3646 125.555 49.7732 126.085 48.5903C126.615 47.4074 126.88 44.9601 126.88 41.2483V39.2904Z" fill="url(#paint3_linear_124_4821)"/>
<path d="M154.663 46.2041H151.848V58.6244H141.569V20.6294H153.99C158.354 20.6294 161.597 21.6287 163.718 23.6274C165.839 25.6261 166.899 28.9096 166.899 33.478C166.899 38.0463 165.9 41.3094 163.901 43.2673C161.903 45.2252 158.823 46.2041 154.663 46.2041ZM155.825 37.9443C156.192 37.2509 156.376 36.0069 156.376 34.2122C156.376 32.4174 156.172 31.153 155.764 30.4188C155.356 29.6846 154.54 29.3175 153.317 29.3175H151.848V38.9845H153.561C154.704 38.9845 155.458 38.6378 155.825 37.9443Z" fill="url(#paint4_linear_124_4821)"/>
<path d="M185.441 58.6244H175.224V30.3576H170.818V23.9333L177.059 20.6294H185.441V58.6244Z" fill="url(#paint5_linear_124_4821)"/>
<path d="M207.303 39.9022V38.9845C207.303 34.9871 207.18 32.6622 206.936 32.0095C206.732 31.3161 206.507 30.7247 206.263 30.2352C205.814 29.4194 205.019 29.0116 203.877 29.0116C202.734 29.0116 201.959 29.4194 201.552 30.2352C201.062 31.2957 200.797 32.3766 200.756 33.478C200.675 35.5174 200.634 37.3529 200.634 38.9845V39.9022C200.634 44.3482 200.736 46.9383 200.94 47.6725C201.184 48.3659 201.429 48.9574 201.674 49.4468C202.082 50.3442 202.959 50.7929 204.305 50.7929C205.651 50.7929 206.487 50.0383 206.813 48.5291C207.14 46.9791 207.303 44.1035 207.303 39.9022ZM216.542 31.153C216.909 33.3964 217.092 36.2108 217.092 39.5963C217.092 42.9818 216.909 45.7962 216.542 48.0396C216.215 50.283 215.583 52.3021 214.645 54.0968C212.809 57.5231 209.22 59.2362 203.877 59.2362C198.615 59.2362 195.066 57.5231 193.231 54.0968C192.292 52.3021 191.64 50.283 191.273 48.0396C190.906 45.7554 190.722 42.941 190.722 39.5963C190.722 32.7437 191.619 27.7675 193.414 24.6675C195.25 21.5676 198.737 20.0176 203.877 20.0176C209.261 20.0176 212.85 21.7103 214.645 25.0958C215.583 26.8905 216.215 28.9096 216.542 31.153Z" fill="url(#paint6_linear_124_4821)"/>
<defs>
<linearGradient id="paint0_linear_124_4821" x1="64.1269" y1="6.38116" x2="56.6594" y2="71.5599" gradientUnits="userSpaceOnUse">
<stop stop-color="white"/>
<stop offset="0.984375" stop-color="#D9D9D9"/>
</linearGradient>
<linearGradient id="paint1_linear_124_4821" x1="45.8252" y1="11.5078" x2="45.8252" y2="51.542" gradientUnits="userSpaceOnUse">
<stop stop-color="#FB0101"/>
<stop offset="1" stop-color="#AE0001"/>
</linearGradient>
<linearGradient id="paint2_linear_124_4821" x1="149.363" y1="21.4147" x2="149.363" y2="59.0287" gradientUnits="userSpaceOnUse">
<stop offset="0.0477466" stop-color="#F8F9F9"/>
<stop offset="1" stop-color="#D9D9D9"/>
</linearGradient>
<linearGradient id="paint3_linear_124_4821" x1="149.363" y1="21.4147" x2="149.363" y2="59.0287" gradientUnits="userSpaceOnUse">
<stop offset="0.0477466" stop-color="#F8F9F9"/>
<stop offset="1" stop-color="#D9D9D9"/>
</linearGradient>
<linearGradient id="paint4_linear_124_4821" x1="149.363" y1="21.4147" x2="149.363" y2="59.0287" gradientUnits="userSpaceOnUse">
<stop offset="0.0477466" stop-color="#F8F9F9"/>
<stop offset="1" stop-color="#D9D9D9"/>
</linearGradient>
<linearGradient id="paint5_linear_124_4821" x1="194.128" y1="24.1014" x2="194.128" y2="56.962" gradientUnits="userSpaceOnUse">
<stop stop-color="#FB0101"/>
<stop offset="1" stop-color="#AE0001"/>
</linearGradient>
<linearGradient id="paint6_linear_124_4821" x1="194.128" y1="24.1014" x2="194.128" y2="56.962" gradientUnits="userSpaceOnUse">
<stop stop-color="#FB0101"/>
<stop offset="1" stop-color="#AE0001"/>
</linearGradient>
</defs>
</svg>
